<svg xmlns="http://www.w3.org/2000/svg" width="960" height="640" viewBox="0 0 960 640">
  <defs>
    <linearGradient id="site" x1="0" y1="0" x2="1" y2="1">
      <stop stop-color="#dfe4ec"/>
      <stop offset="1" stop-color="#b8bec9"/>
    </linearGradient>
    <linearGradient id="atm2" x1="0" y1="0" x2="0" y2="1">
      <stop stop-color="#626a76"/>
      <stop offset="1" stop-color="#303640"/>
    </linearGradient>
  </defs>
  <rect width="960" height="640" fill="url(#site)"/>
  <rect y="520" width="960" height="120" fill="#aeb4bd"/>
  <rect x="252" y="46" width="442" height="556" rx="24" fill="url(#atm2)" transform="rotate(-1 473 324)"/>
  <rect x="294" y="90" width="356" height="190" rx="16" fill="#1c2434" transform="rotate(-1 472 185)"/>
  <rect x="321" y="116" width="302" height="138" rx="10" fill="#26355e"/>
  <text x="472" y="178" fill="#fff" font-family="Arial" font-size="30" font-weight="700" text-anchor="middle">ATM 014</text>
  <text x="472" y="216" fill="#d1d9eb" font-family="Arial" font-size="18" text-anchor="middle">Captura del técnico</text>
  <rect x="309" y="316" width="326" height="68" rx="12" fill="#20252d"/>
  <rect x="336" y="338" width="128" height="24" rx="5" fill="#a1a7b0"/>
  <rect x="498" y="334" width="104" height="32" rx="6" fill="#15191f"/>
  <rect x="309" y="420" width="326" height="112" rx="14" fill="#4c535e" stroke="#9ba1aa" stroke-width="3"/>
  <rect x="347" y="449" width="248" height="26" rx="6" fill="#181d24"/>
  <rect x="347" y="489" width="180" height="18" rx="4" fill="#7e8691"/>
  <path d="M270 68h48M270 68v48M678 68h-48M678 68v48M270 580h48M270 580v-48M678 580h-48M678 580v-48" fill="none" stroke="#7041da" stroke-width="6" stroke-linecap="round"/>
  <rect x="25" y="25" width="244" height="50" rx="25" fill="#fff" opacity=".94"/>
  <circle cx="54" cy="50" r="13" fill="#278a52"/>
  <path d="m48 50 4 4 8-9" fill="none" stroke="#fff" stroke-width="3" stroke-linecap="round"/>
  <text x="77" y="57" fill="#262a33" font-family="Arial" font-size="18" font-weight="700">Sitio simulado coincide</text>
  <rect x="684" y="548" width="248" height="58" rx="12" fill="#1b1f28" opacity=".92"/>
  <text x="704" y="573" fill="#fff" font-family="Arial" font-size="15" font-weight="700">SO-ATM-2401 · ATM-014</text>
  <text x="704" y="593" fill="#c7ccd6" font-family="Arial" font-size="12">Ubicación y hora simuladas</text>
</svg>
